<svg width="200" height="32" viewBox="0 0 200 32" fill="none" xmlns="http://www.w3.org/2000/svg">
<path fill-rule="evenodd" clip-rule="evenodd" d="M0 0V32H8V14.5L13 21.5H17L21.5 14.5V32H30V0H21.5L15 10.5L8.5 0H0ZM40 0V32H62V24.5H48V19H60V12H48V7.5H62V0H40ZM70.5 32V0H78.5L92 19L91.5 0H99.5V32H91.5L78.5 13.5V32H70.5ZM107.5 0V8H123L108.5 23.5V32H133.5V24H118L133 8.5V0H107.5ZM142 32V0H164V7.5H150V12H162V19H150V24.5H164V32H142ZM172.5 0V32H180.5V20H184L190.5 32H200L192 19C192 19 198.5 17 198.5 9.5C198 1 190.5 0 190.5 0H172.5ZM180.5 7.5V12.5H188C188 12.5 190 12.5 190 10C190 7.5 188 7.5 188 7.5H180.5Z" fill="#000"/>
</svg>
